<?xml version="1.0" standalone="no"?>
<!DOCTYPE svg PUBLIC "-//W3C//DTD SVG 20010904//EN"
 "http://www.w3.org/TR/2001/REC-SVG-20010904/DTD/svg10.dtd">
<svg version="1.0" xmlns="http://www.w3.org/2000/svg"
 width="828.000000pt" height="828.000000pt" viewBox="0 0 828.000000 828.000000"
 preserveAspectRatio="xMidYMid meet">
<metadata>
Created by potrace 1.14, written by Peter Selinger 2001-2017
</metadata>
<g transform="translate(0.000000,828.000000) scale(0.100000,-0.100000)"
fill="#000000" stroke="none">
<path d="M4264 8271 c4 -6 2 -9 -6 -6 -19 7 -61 -34 -54 -52 3 -8 1 -11 -4 -8
-6 4 -10 -10 -10 -34 0 -23 5 -41 10 -41 6 0 10 -6 10 -14 0 -7 12 -22 27 -32
15 -9 39 -28 53 -41 14 -13 28 -23 32 -23 5 0 8 -7 8 -16 0 -8 3 -13 8 -11 9
6 33 -19 25 -27 -3 -3 2 -8 11 -12 9 -3 16 -12 16 -20 0 -8 3 -14 8 -14 7 0
56 -105 58 -125 0 -5 4 -18 9 -28 4 -9 5 -28 3 -42 -3 -13 -2 -22 2 -20 4 3
10 -4 13 -15 3 -11 1 -23 -4 -26 -6 -4 -6 -11 0 -18 6 -7 8 -16 4 -20 -13 -12
-13 -46 0 -46 9 0 9 -2 0 -8 -6 -4 -13 -19 -15 -32 -2 -14 -6 -29 -9 -35 -7
-11 -20 -62 -19 -71 1 -3 -7 -12 -17 -20 -10 -7 -13 -14 -8 -14 6 0 5 -4 -2
-8 -6 -4 -13 -14 -15 -22 -2 -8 -22 -33 -44 -57 -23 -23 -39 -45 -36 -48 3 -3
1 -5 -4 -5 -11 0 -39 -20 -87 -63 -27 -23 -32 -35 -33 -77 -1 -28 2 -50 7 -50
5 0 9 -7 9 -16 0 -8 4 -13 8 -10 5 3 15 -4 22 -15 8 -10 19 -19 24 -19 5 0 19
-11 32 -26 13 -14 24 -22 24 -19 0 3 6 0 14 -7 8 -7 12 -16 9 -20 -2 -5 1 -8
8 -8 7 0 10 -3 7 -6 -4 -3 7 -18 23 -33 16 -16 29 -33 29 -40 0 -6 4 -11 10
-11 5 0 7 -7 4 -15 -4 -8 -1 -15 5 -15 6 0 10 -3 9 -7 -1 -5 4 -19 11 -32 9
-17 10 -21 1 -16 -7 4 -5 -3 3 -16 9 -13 17 -43 18 -66 2 -24 8 -43 13 -43 7
0 8 -3 1 -8 -14 -10 -17 -32 -4 -32 6 0 7 -5 2 -12 -4 -7 -8 -27 -8 -45 0 -18
-4 -35 -7 -38 -4 -4 -4 -13 -1 -21 3 -8 0 -14 -5 -14 -6 0 -9 -9 -7 -20 2 -11
-1 -20 -6 -20 -6 0 -8 -3 -6 -7 3 -5 -6 -26 -19 -48 -13 -22 -28 -50 -34 -62
-5 -13 -14 -23 -20 -23 -5 0 -10 -7 -10 -15 0 -8 -5 -15 -11 -15 -5 0 -7 -4
-4 -10 3 -5 0 -10 -7 -10 -8 0 -21 -8 -29 -17 -17 -20 -76 -69 -98 -82 -9 -6
-15 -29 -17 -61 -1 -41 2 -56 20 -74 11 -12 24 -21 29 -19 4 2 7 -1 7 -7 0 -6
4 -9 9 -5 5 3 12 1 15 -3 7 -12 56 -3 56 10 0 5 4 7 10 3 9 -5 31 10 72 48 10
9 18 15 18 12 0 -3 23 17 50 44 28 28 50 53 50 56 0 3 9 15 20 27 11 12 20 28
20 35 0 7 4 13 9 13 5 0 16 16 25 35 9 19 23 50 32 69 15 33 22 57 23 84 1 7
5 11 9 8 4 -2 7 11 7 30 -1 19 2 34 5 34 4 0 8 52 8 115 1 75 -3 115 -10 115
-7 0 -7 4 1 13 6 9 7 17 1 23 -5 5 -10 24 -12 42 -1 17 -6 32 -10 32 -4 0 -8
7 -8 15 0 9 -9 35 -20 57 -11 23 -20 47 -20 53 0 6 -9 17 -19 25 -11 7 -18 17
-15 21 2 4 -2 13 -9 21 -7 7 -25 30 -39 51 -17 25 -28 34 -31 25 -3 -7 -6 -3
-6 9 -1 12 -7 24 -13 26 -9 4 -4 14 14 30 15 14 24 27 22 30 -3 3 4 11 16 17
12 6 20 14 17 16 -3 3 6 17 19 31 13 14 21 29 18 34 -3 5 -1 9 5 9 5 0 15 16
21 35 7 22 16 33 23 28 7 -3 9 -3 5 1 -3 4 0 27 9 49 16 47 23 72 28 104 2 12
6 27 10 32 3 6 0 11 -7 11 -10 0 -10 2 0 8 14 9 15 222 1 222 -4 0 -6 8 -5 18
3 20 -19 96 -40 135 -8 15 -13 27 -9 27 3 0 -6 18 -20 40 -14 22 -25 44 -25
49 0 5 -7 12 -16 15 -10 4 -14 12 -10 23 4 10 4 15 1 11 -6 -6 -45 26 -45 37
0 11 -48 54 -54 48 -3 -4 -6 -1 -6 6 0 16 -26 42 -34 34 -3 -4 -6 -1 -6 5 0 7
-6 12 -14 12 -8 0 -17 7 -20 16 -3 8 -10 13 -15 10 -5 -4 -11 -1 -13 5 -2 6
-23 13 -47 16 -30 4 -41 2 -37 -6z"/>
<path d="M3435 7216 c-48 -21 -69 -124 -33 -157 10 -9 15 -19 12 -22 -3 -3 4
-8 16 -12 13 -4 42 -26 66 -50 24 -23 46 -40 49 -37 3 3 5 0 5 -7 0 -12 10
-26 45 -63 11 -11 15 -18 8 -14 -13 7 27 -75 42 -86 6 -4 6 -8 1 -8 -5 0 -3
-7 4 -15 9 -11 9 -15 1 -15 -8 0 -7 -7 2 -22 7 -13 13 -35 12 -50 0 -16 3 -28
8 -28 4 0 5 -5 2 -11 -4 -6 -9 -40 -11 -77 -7 -93 -6 -92 -16 -92 -4 0 -7 -3
-7 -7 1 -5 0 -11 -1 -15 -1 -5 -3 -11 -5 -15 -14 -53 -19 -62 -28 -56 -6 4 -8
0 -5 -9 4 -9 -4 -26 -18 -41 -13 -14 -24 -29 -24 -33 0 -10 -82 -89 -91 -89
-5 0 -15 -9 -23 -20 -9 -11 -16 -17 -16 -12 0 4 -9 -2 -20 -13 -12 -12 -18
-25 -15 -30 4 -6 2 -10 -3 -10 -13 0 -13 -62 0 -77 6 -7 7 -13 2 -13 -4 0 7
-11 25 -24 18 -13 43 -23 57 -21 13 1 24 -2 24 -8 0 -5 7 -4 15 3 8 7 15 9 15
6 0 -4 11 4 23 18 13 14 26 24 28 21 3 -2 27 16 54 40 27 25 53 45 58 45 4 0
5 4 2 10 -3 5 3 15 15 22 11 7 20 18 20 25 0 7 5 13 11 13 5 0 8 4 5 9 -3 5 1
12 9 15 15 5 40 53 37 69 -1 4 2 7 7 7 8 0 24 37 22 53 -1 4 3 7 7 7 4 0 8 10
9 22 1 11 6 24 10 27 4 3 9 13 10 21 1 8 5 29 8 45 3 17 8 46 9 66 1 19 5 40
7 45 5 8 4 69 -1 69 -1 0 -3 12 -4 28 -1 15 2 27 6 27 4 0 1 15 -6 33 -7 17
-12 42 -11 55 1 12 -3 22 -8 22 -5 0 -7 7 -3 15 3 8 1 15 -4 15 -6 0 -9 3 -8
8 2 10 -26 83 -43 112 -5 8 -15 27 -22 43 -7 15 -16 24 -20 20 -4 -3 -8 -1 -8
5 -4 33 -6 37 -18 34 -7 -1 -10 2 -7 7 4 5 -4 17 -16 25 -12 9 -19 16 -16 16
4 0 -5 13 -20 28 -15 15 -29 27 -31 25 -2 -1 -14 9 -28 23 -13 13 -29 21 -35
18 -6 -4 -9 -3 -6 2 3 5 0 15 -8 22 -8 7 -14 10 -14 6 0 -3 -6 -1 -14 5 -18
15 -75 19 -101 7z"/>
<path d="M5007 7215 c-7 -6 -17 -10 -24 -8 -6 2 -14 -5 -18 -16 -3 -12 -11
-21 -16 -21 -6 0 -7 -9 -4 -21 5 -14 3 -19 -3 -15 -11 6 -10 -19 0 -30 4 -3 4
-12 2 -19 -3 -7 4 -19 15 -27 12 -8 18 -18 14 -21 -3 -4 5 -7 18 -7 19 0 21
-2 9 -10 -13 -8 -13 -10 2 -10 20 0 138 -116 138 -136 0 -8 5 -14 10 -14 6 0
10 -7 10 -15 0 -8 5 -15 11 -15 6 0 9 -6 6 -14 -3 -8 -1 -16 4 -18 5 -2 11
-13 12 -26 0 -12 4 -22 8 -22 10 0 23 -88 22 -157 -1 -104 -3 -124 -11 -119
-4 2 -8 -3 -9 -12 0 -9 -4 -28 -8 -42 -4 -14 -7 -31 -7 -37 -1 -7 -5 -13 -10
-13 -4 0 -8 -7 -8 -16 0 -9 -5 -12 -12 -8 -7 4 -8 3 -4 -5 4 -6 1 -18 -6 -26
-27 -30 -38 -44 -38 -50 0 -9 -83 -85 -93 -85 -4 0 -5 -5 -1 -12 4 -6 3 -8 -3
-5 -5 3 -21 -4 -34 -16 -30 -26 -55 -77 -38 -77 8 0 8 -4 0 -13 -8 -10 -7 -17
1 -25 7 -7 9 -12 5 -12 -3 0 4 -11 16 -24 46 -50 126 -41 192 20 14 13 29 24
32 24 10 0 51 49 45 54 -3 3 1 6 10 6 8 0 20 11 26 25 7 14 19 28 27 31 8 4
15 12 15 19 0 6 9 22 20 35 11 13 23 34 26 47 4 13 11 23 17 23 6 0 7 3 4 6
-3 4 -1 16 5 28 12 21 18 41 20 64 1 6 5 12 10 12 5 0 7 4 4 8 -3 5 1 20 9 35
8 16 10 29 4 32 -5 4 -6 14 -1 23 4 9 7 26 7 37 0 11 4 23 10 27 6 5 5 8 -3 8
-9 0 -10 5 -2 19 7 14 7 22 -1 27 -8 4 -7 9 2 15 9 5 9 9 3 9 -7 0 -12 15 -12
33 -1 60 -21 157 -34 157 -5 0 -7 4 -4 8 7 11 -61 154 -77 164 -7 4 -8 8 -3 8
5 0 -3 11 -18 25 -14 13 -26 27 -26 30 0 13 -28 34 -35 27 -5 -4 -5 -2 -2 4 7
12 -66 80 -104 98 -10 5 -19 15 -19 22 0 8 -6 11 -15 8 -8 -3 -20 -2 -27 2
-20 12 -49 12 -61 -1z"/>
<path d="M2154 5361 c-2 -2 -15 -5 -29 -7 -13 -1 -35 -11 -49 -21 -26 -19 -79
-102 -56 -88 10 6 11 4 4 -6 -12 -19 -14 -458 -2 -465 5 -3 4 -11 -2 -19 -12
-15 -10 -36 5 -47 6 -5 6 -8 -1 -8 -14 0 -13 -142 1 -152 7 -5 7 -8 0 -8 -13
0 -14 -689 -1 -709 6 -10 6 -12 -2 -7 -14 8 -14 0 -3 -29 5 -11 4 -25 -1 -32
-7 -9 -7 -13 0 -13 5 0 9 -20 8 -44 -1 -25 3 -42 8 -39 5 4 7 -3 4 -14 -3 -11
-1 -28 4 -37 6 -11 5 -16 -4 -16 -10 0 -10 -2 -1 -8 7 -4 13 -24 15 -45 1 -20
5 -37 9 -37 4 0 6 -15 5 -34 -1 -19 2 -32 6 -30 5 3 8 -2 8 -10 0 -25 1 -30
10 -41 4 -5 6 -18 5 -27 -2 -10 0 -18 4 -18 4 0 14 -23 21 -51 8 -27 18 -52
22 -55 4 -3 8 -13 7 -22 0 -11 -3 -12 -6 -4 -2 6 -11 12 -19 12 -8 0 -14 5
-14 10 0 24 -20 50 -39 50 -6 0 -11 5 -11 10 0 6 -7 10 -15 10 -8 0 -15 5 -15
10 0 6 -9 10 -19 10 -11 0 -21 5 -23 11 -2 5 -12 12 -23 14 -11 2 -20 4 -20 5
0 12 -177 18 -199 7 -13 -6 -16 -6 -12 2 4 6 2 11 -3 11 -6 0 -11 -4 -11 -8 0
-4 -8 -9 -17 -10 -32 -3 -48 -7 -60 -15 -7 -5 -13 -5 -13 -1 0 3 -6 2 -12 -3
-7 -6 -26 -13 -41 -17 -17 -4 -25 -11 -21 -18 4 -6 3 -8 -4 -4 -6 3 -18 -1
-26 -10 -9 -8 -16 -13 -16 -9 0 3 -10 -1 -23 -10 -13 -8 -27 -12 -32 -8 -4 5
-6 3 -3 -2 4 -6 -16 -26 -43 -45 -27 -19 -49 -41 -49 -49 0 -8 -3 -12 -6 -8
-6 6 -46 -30 -54 -48 -3 -5 -16 -21 -30 -35 -23 -23 -124 -174 -126 -189 0 -3
-10 -28 -22 -54 -12 -27 -20 -53 -17 -57 3 -5 0 -10 -7 -12 -6 -2 -13 -13 -14
-24 -2 -10 -5 -30 -8 -44 -15 -77 -18 -102 -18 -170 0 -91 5 -140 14 -140 3 0
5 -13 4 -30 -1 -16 1 -30 5 -30 4 0 10 -14 14 -30 4 -17 11 -30 16 -30 6 0 7
-5 4 -10 -3 -6 -1 -10 4 -10 6 0 11 -6 11 -13 0 -14 63 -82 105 -114 26 -20
27 -23 10 -24 -11 -1 -29 -2 -40 -3 -11 0 -28 2 -37 7 -11 4 -18 4 -18 -2 0
-5 -9 -9 -20 -8 -11 1 -20 6 -20 12 0 6 -3 7 -8 0 -9 -13 -92 -14 -92 -2 0 5
-6 5 -13 -2 -10 -8 -17 -7 -27 2 -9 9 -11 9 -6 0 4 -8 -1 -11 -14 -10 -11 1
-20 5 -20 10 0 4 -5 5 -12 1 -7 -4 -26 -9 -42 -11 -16 -2 -37 -10 -46 -18 -9
-8 -22 -15 -28 -15 -7 0 -12 -5 -12 -11 0 -6 -7 -17 -15 -26 -8 -8 -13 -19
-10 -24 4 -5 2 -9 -4 -9 -7 0 -7 -8 -1 -26 6 -14 6 -23 2 -20 -4 2 -8 -4 -8
-14 0 -10 4 -16 8 -14 4 3 8 -4 8 -16 0 -12 4 -18 10 -15 6 3 10 1 10 -4 0
-11 36 -51 45 -51 3 0 7 -1 10 -1 3 -1 10 -3 15 -4 6 -1 11 -3 13 -4 1 -2 13
-4 27 -6 22 -3 59 -10 95 -18 6 -2 16 -6 23 -10 7 -5 12 -3 12 4 0 8 4 8 13 2
6 -6 24 -10 39 -9 14 1 24 -2 22 -6 -4 -7 53 -13 79 -9 4 0 7 -3 7 -7 0 -5 16
-9 35 -10 20 -1 39 -3 43 -6 4 -2 26 -7 48 -10 61 -9 83 -14 93 -20 5 -4 12 0
14 6 4 10 6 10 6 1 1 -7 10 -13 22 -13 11 0 30 -5 41 -11 16 -8 19 -8 13 1 -6
9 -3 9 12 1 11 -6 23 -7 27 -4 3 3 6 0 6 -8 0 -11 2 -11 10 1 5 8 10 10 10 4
0 -6 13 -10 30 -9 16 1 27 -2 24 -7 -3 -4 13 -8 35 -8 24 0 41 -5 41 -11 0 -8
5 -8 15 1 9 8 15 9 15 2 0 -6 9 -9 20 -7 11 2 20 0 20 -5 0 -5 7 -7 16 -3 9 3
20 0 25 -8 7 -12 9 -12 9 0 0 9 4 10 13 4 6 -5 26 -10 42 -12 17 -2 32 -6 35
-10 3 -3 23 -7 45 -9 52 -3 73 -7 81 -14 3 -4 13 -4 22 -1 8 4 13 2 10 -3 -4
-5 8 -8 25 -8 18 1 36 -1 42 -4 5 -3 18 -7 30 -8 11 -1 34 -5 50 -8 17 -4 48
-9 70 -12 22 -4 42 -10 43 -16 2 -5 10 -4 17 2 9 8 15 8 20 0 3 -5 15 -10 27
-10 16 0 18 -3 9 -14 -7 -8 -8 -17 -4 -19 11 -7 10 -107 0 -124 -4 -6 -4 -14
1 -17 4 -2 7 -54 7 -115 -1 -72 2 -111 9 -112 33 -3 3074 -4 3086 -1 13 3 15
30 15 190 -1 103 1 193 3 200 2 6 10 12 18 12 8 0 14 5 14 10 0 6 5 10 11 10
5 0 7 -5 3 -11 -4 -7 1 -7 16 1 12 6 28 9 35 6 7 -2 16 2 19 11 5 11 10 13 20
4 7 -6 15 -8 18 -6 5 6 77 20 153 31 22 4 47 10 55 14 8 4 23 6 33 5 9 -2 17
0 17 3 0 4 12 8 28 9 15 1 43 5 62 9 19 4 45 7 58 8 12 0 22 3 22 6 0 3 8 6
18 7 24 3 73 11 97 17 11 2 35 5 53 5 18 1 31 5 28 10 -3 4 12 8 34 7 22 -1
40 2 40 6 0 5 6 8 13 7 6 -1 37 2 67 7 30 4 58 7 63 6 4 -1 7 2 7 8 0 5 10 10
23 9 22 0 42 3 107 16 19 4 46 9 60 10 14 2 26 4 28 5 3 4 84 20 122 25 3 0
11 4 18 8 7 5 12 3 12 -5 0 -11 2 -11 9 0 4 7 12 12 17 11 5 -1 11 -1 14 1 3
1 16 3 30 6 14 2 39 6 55 9 17 3 38 7 48 8 9 1 17 5 17 10 0 5 7 6 16 3 8 -3
12 -2 9 4 -3 6 -1 10 4 10 6 0 11 7 11 16 0 8 4 13 9 10 20 -12 44 76 27 102
-4 7 -2 12 6 12 8 0 6 5 -5 11 -9 6 -15 14 -12 18 2 5 -2 14 -10 21 -8 7 -12
16 -9 21 3 5 2 8 -3 7 -4 -1 -17 3 -29 9 -12 7 -37 14 -55 16 -19 2 -41 7 -48
12 -10 5 -12 4 -7 -3 9 -16 -7 -15 -22 0 -9 9 -12 9 -12 1 0 -7 -9 -11 -20
-10 -11 1 -20 6 -20 12 0 6 -3 7 -8 0 -9 -13 -52 -15 -52 -2 0 6 -5 5 -13 -2
-10 -7 -17 -7 -24 0 -8 8 -13 8 -17 0 -5 -8 -13 -8 -27 -1 -12 7 -19 7 -19 1
0 -5 -9 -9 -20 -8 -11 1 -20 6 -20 12 0 6 -3 7 -8 0 -9 -13 -92 -14 -92 -2 0
5 -6 5 -13 -2 -10 -8 -17 -7 -26 2 -9 9 -14 9 -20 -2 -7 -10 -13 -11 -31 -1
-15 8 -20 8 -16 1 10 -15 -7 -14 -22 1 -9 9 -12 9 -12 1 0 -7 -9 -11 -20 -10
-11 1 -20 6 -20 12 0 6 -3 7 -8 0 -9 -13 -52 -15 -52 -2 0 6 -5 5 -13 -2 -10
-7 -17 -7 -24 0 -8 8 -13 8 -17 0 -5 -8 -13 -8 -27 -1 -12 7 -19 7 -19 1 0 -5
-9 -9 -20 -8 -11 1 -20 6 -20 12 0 6 -3 7 -8 0 -9 -13 -92 -14 -92 -2 0 5 -6
5 -13 -2 -10 -8 -17 -7 -27 2 -9 9 -11 9 -6 0 4 -8 -1 -11 -14 -10 -11 1 -20
5 -20 10 0 5 -6 5 -13 -2 -10 -7 -17 -7 -24 0 -8 8 -13 8 -17 0 -5 -8 -13 -8
-27 -1 -12 7 -19 7 -19 1 0 -5 -9 -9 -20 -8 -11 1 -20 6 -20 12 0 6 -3 7 -8 0
-9 -13 -92 -14 -92 -2 0 5 -6 5 -13 -2 -10 -8 -17 -7 -27 2 -9 9 -11 9 -6 0 4
-8 -1 -11 -14 -10 -11 1 -20 5 -20 10 0 5 -6 5 -13 -2 -10 -7 -17 -7 -24 0 -8
8 -13 8 -17 0 -5 -8 -13 -8 -27 -1 -12 7 -19 7 -19 1 0 -5 -9 -9 -20 -8 -11 1
-20 6 -20 12 0 6 -3 7 -8 0 -9 -13 -92 -14 -92 -2 0 5 -6 5 -13 -2 -10 -8 -17
-7 -27 2 -9 9 -11 9 -6 0 4 -8 -1 -11 -14 -10 -11 1 -20 5 -20 10 0 5 -6 5
-13 -2 -10 -7 -17 -7 -24 0 -8 8 -13 8 -17 0 -5 -8 -13 -8 -27 -1 -12 7 -19 7
-19 1 0 -5 -9 -9 -20 -8 -11 1 -20 6 -20 12 0 6 -3 7 -8 0 -9 -13 -92 -14 -92
-2 0 5 -6 5 -13 -2 -10 -8 -17 -7 -27 2 -9 9 -11 9 -6 0 4 -8 -1 -11 -14 -10
-11 1 -20 5 -20 10 0 5 -6 5 -13 -2 -10 -7 -17 -7 -24 0 -8 8 -13 8 -17 0 -5
-8 -13 -8 -27 -1 -12 7 -19 7 -19 1 0 -5 -9 -9 -20 -8 -11 1 -20 6 -20 12 0 6
-3 7 -8 0 -9 -13 -92 -14 -92 -2 0 5 -6 5 -13 -2 -10 -8 -17 -7 -27 2 -9 9
-11 9 -6 0 4 -8 -1 -11 -14 -10 -11 1 -20 5 -20 10 0 5 -6 4 -14 -2 -11 -9
-16 -9 -21 -1 -5 8 -10 9 -18 1 -7 -7 -16 -7 -29 0 -10 5 -18 6 -18 1 0 -5
-13 -9 -30 -9 -16 0 -30 5 -30 10 0 6 3 7 6 4 4 -3 16 -1 28 5 11 7 24 12 28
13 3 0 10 3 14 7 4 5 16 8 26 8 10 0 18 5 18 11 0 5 4 8 9 4 5 -3 16 2 25 10
8 9 18 15 21 15 8 -1 125 57 160 80 17 11 39 24 50 29 12 5 27 16 34 25 7 9
18 16 23 16 8 0 84 55 98 71 3 3 23 18 45 32 22 15 36 27 31 27 -5 0 4 10 20
22 29 23 185 178 178 178 -2 0 15 19 36 42 22 23 40 44 40 48 0 4 9 18 20 31
12 12 30 38 41 56 11 18 25 33 30 33 6 0 8 4 4 9 -3 5 1 16 9 24 8 8 12 17 9
21 -4 3 -2 6 3 6 5 0 18 17 29 38 11 20 26 43 32 50 7 7 13 19 13 26 0 18 24
66 33 66 5 0 6 4 3 9 -9 15 28 23 39 9 5 -7 17 -14 25 -16 8 -2 31 -10 50 -19
19 -10 46 -19 60 -21 13 -2 27 -6 30 -10 3 -4 21 -7 42 -7 20 0 34 -3 31 -8
-2 -4 7 -6 21 -3 15 3 32 -2 41 -10 8 -9 15 -12 15 -7 0 5 9 9 20 9 11 0 20
-4 20 -9 0 -5 7 -4 15 3 8 7 15 8 15 3 0 -10 78 -9 185 2 39 4 76 7 83 8 6 0
12 4 12 8 0 4 9 6 20 4 11 -2 20 0 20 5 0 5 9 7 20 5 11 -2 20 0 20 6 0 5 3 8
8 8 4 -1 9 0 12 1 3 1 12 3 20 5 31 7 85 30 91 38 4 5 18 10 32 10 14 1 23 5
20 10 -2 4 12 14 31 22 20 9 36 20 36 26 0 5 4 8 8 5 5 -3 20 6 35 20 15 14
27 22 27 19 0 -4 21 14 47 39 26 25 51 46 55 46 4 0 8 7 8 15 0 8 7 15 17 15
9 0 14 3 10 6 -7 7 29 44 44 44 5 0 7 4 4 10 -3 5 5 21 18 34 14 14 22 27 20
30 -3 3 2 8 11 12 9 3 14 10 11 14 -3 5 1 14 8 22 18 18 42 61 39 71 -1 4 2 7
8 7 5 0 7 7 4 15 -4 8 -1 15 5 15 6 0 11 9 11 20 0 11 5 20 12 20 6 0 8 3 5 7
-4 3 -2 12 4 20 6 7 8 13 5 13 -4 0 -2 8 3 18 12 22 22 67 24 104 1 14 6 24
11 21 5 -3 7 8 4 26 -2 17 -1 31 2 31 4 0 8 25 9 55 1 30 2 67 3 83 1 15 -2
59 -6 97 -5 39 -8 78 -8 88 1 9 -5 17 -11 17 -7 0 -6 4 3 10 11 7 11 10 2 10
-7 0 -12 6 -11 13 1 6 0 19 -3 27 -14 39 -29 96 -28 104 1 5 -3 12 -10 16 -6
4 -12 14 -14 23 -3 20 -39 91 -49 95 -4 2 -5 8 -1 13 3 5 -2 12 -10 15 -9 3
-16 12 -16 20 0 13 -16 37 -47 69 -7 8 -13 16 -13 19 0 3 -15 21 -32 40 -18
19 -41 44 -51 55 -10 12 -22 19 -27 16 -6 -3 -10 0 -10 7 0 8 -10 20 -21 28
-12 8 -33 26 -47 40 -15 14 -29 24 -32 24 -3 -1 -24 11 -46 27 -23 15 -44 25
-48 22 -3 -4 -6 -1 -6 6 0 7 -4 10 -9 7 -5 -4 -11 -3 -13 1 -1 5 -22 18 -46
30 -23 12 -40 18 -37 13 3 -4 -6 -3 -20 3 -14 7 -25 16 -25 20 0 5 -4 5 -10 2
-5 -3 -16 -3 -22 1 -7 5 -19 9 -28 10 -8 2 -31 7 -50 12 -19 5 -45 8 -57 7
-13 -1 -23 2 -23 6 0 4 -70 7 -155 6 -88 0 -155 -5 -155 -10 0 -5 -11 -6 -25
-3 -15 4 -25 2 -25 -4 0 -6 -4 -9 -9 -5 -5 3 -13 1 -16 -5 -5 -8 -11 -8 -20 0
-9 8 -15 6 -20 -7 -12 -27 -23 35 -20 102 2 30 -1 57 -6 61 -5 3 -5 14 2 26 8
15 8 22 -1 28 -7 5 -11 14 -9 21 3 8 -8 26 -23 41 -15 15 -28 24 -28 20 0 -4
-5 0 -10 8 -9 14 -89 24 -160 20 -14 -1 -32 -1 -40 -1 -8 1 -26 1 -40 0 -14 0
-32 0 -40 0 -8 1 -26 1 -40 0 -35 -1 -42 -1 -65 4 -11 2 -30 0 -42 -4 -13 -5
-23 -5 -23 -1 0 12 -84 9 -93 -3 -6 -7 -10 -7 -13 0 -4 11 -106 11 -124 0 -5
-3 -10 -2 -10 2 0 13 -83 10 -93 -2 -6 -7 -10 -7 -13 0 -4 11 -106 11 -124 0
-5 -3 -10 -2 -10 2 0 7 -72 9 -90 3 -12 -4 -71 -2 -76 3 -3 3 -18 2 -33 -3
-16 -4 -34 -4 -41 0 -7 4 -25 4 -40 0 -15 -4 -33 -4 -40 0 -7 4 -25 4 -40 0
-15 -4 -33 -4 -41 1 -8 5 -16 3 -21 -4 -4 -7 -8 -7 -8 -2 0 11 -102 11 -120 0
-5 -3 -10 -2 -10 2 0 13 -83 10 -93 -2 -6 -7 -10 -6 -13 1 -5 11 -55 11 -73
-1 -6 -3 -11 -2 -11 2 0 10 -104 8 -120 -2 -5 -3 -10 -2 -10 2 0 13 -83 10
-93 -2 -6 -7 -10 -7 -13 0 -2 6 -19 9 -37 8 -17 -1 -48 -2 -67 -2 -19 -1 -46
-2 -60 -2 -14 0 -32 0 -40 0 -8 1 -26 1 -40 0 -14 0 -32 0 -40 0 -8 1 -26 1
-40 0 -35 -1 -42 -1 -65 4 -11 2 -30 0 -42 -4 -13 -5 -23 -5 -23 -1 0 12 -84
9 -93 -3 -6 -7 -10 -7 -13 0 -4 11 -106 11 -124 0 -5 -3 -10 -2 -10 2 0 13
-83 10 -93 -2 -6 -7 -10 -7 -13 0 -4 11 -106 11 -124 0 -5 -3 -10 -2 -10 2 0
7 -72 9 -90 3 -3 -1 -21 -1 -40 -1 -19 1 -46 1 -60 0 -14 0 -32 0 -40 0 -8 1
-26 1 -40 0 -14 0 -32 0 -40 0 -8 1 -26 1 -40 0 -35 -1 -42 -1 -65 4 -11 2
-30 0 -42 -4 -13 -5 -23 -5 -23 -1 0 12 -84 9 -93 -3 -6 -7 -10 -7 -13 0 -4
11 -106 11 -124 0 -5 -3 -10 -3 -10 2 0 8 -98 12 -106 4z m4121 -773 c33 -2
62 -5 65 -8 7 -7 102 -41 117 -42 7 -1 14 -7 17 -15 3 -7 15 -13 26 -13 12 0
18 -4 15 -10 -3 -5 -1 -10 4 -10 18 0 113 -84 105 -93 -3 -3 4 -10 15 -17 12
-6 19 -15 16 -19 -3 -5 2 -12 11 -15 8 -3 12 -10 9 -16 -3 -5 -2 -10 2 -10 7
0 33 -51 37 -72 0 -3 4 -10 9 -14 4 -4 7 -16 7 -26 0 -10 3 -18 8 -18 4 0 8
-24 10 -53 1 -28 4 -70 5 -92 2 -22 1 -44 -2 -50 -3 -5 -6 -23 -7 -40 -1 -16
-6 -41 -12 -55 -5 -14 -8 -28 -5 -32 2 -5 -1 -8 -6 -8 -6 0 -10 -3 -9 -7 4
-15 -13 -53 -23 -53 -6 0 -7 -4 -4 -10 6 -10 -3 -24 -39 -60 -11 -11 -17 -20
-13 -20 10 0 -74 -82 -110 -107 -18 -13 -37 -23 -43 -23 -5 0 -10 -5 -10 -11
0 -5 -4 -7 -10 -4 -5 3 -10 2 -10 -2 0 -9 -89 -39 -102 -35 -5 1 -8 -2 -8 -7
0 -5 -8 -8 -17 -6 -10 1 -25 -1 -34 -6 -10 -5 -21 -3 -29 4 -9 8 -11 8 -6 0 4
-8 -13 -10 -62 -8 -37 2 -67 4 -67 5 0 1 -8 3 -18 5 -48 9 -127 39 -127 48 0
6 -3 7 -7 4 -3 -4 -12 -2 -20 4 -7 6 -13 9 -13 5 0 -3 -13 6 -29 20 -29 26
-37 71 -18 102 5 7 3 12 -5 12 -8 0 -9 3 -3 8 6 4 10 16 9 27 0 11 4 28 9 39
6 13 6 16 -2 12 -6 -4 -11 -3 -11 3 0 5 4 12 8 15 4 2 8 156 7 341 l0 336 32
25 c18 14 38 22 43 19 6 -3 10 -1 10 4 0 6 9 11 20 11 11 0 20 5 20 11 0 6 6
9 14 6 8 -3 17 -3 20 1 4 3 17 7 29 9 12 2 30 5 39 6 10 2 20 6 23 9 3 3 18 4
33 2 15 -1 54 -4 87 -6z m-4069 -1495 c-3 -3 4 -19 15 -34 11 -16 17 -29 14
-29 -4 0 1 -7 9 -16 9 -8 16 -22 16 -30 0 -8 4 -14 9 -14 5 0 7 -9 4 -20 -3
-11 -9 -20 -13 -20 -5 0 -17 -3 -27 -7 -10 -3 -15 -3 -11 1 4 5 3 19 -2 32 -6
14 -6 24 -1 24 8 0 0 43 -17 90 -10 29 -10 40 0 34 5 -3 7 -8 4 -11z m-256
-996 c0 -4 -9 -3 -19 3 -14 7 -20 7 -23 -2 -3 -8 -10 -8 -27 2 -15 7 -21 8
-17 1 10 -15 -7 -14 -22 1 -9 9 -12 9 -12 1 0 -7 -9 -11 -20 -10 -11 1 -20 6
-20 12 0 6 -3 7 -8 0 -4 -5 -26 -11 -50 -12 -36 -1 -41 1 -31 13 6 7 15 11 20
8 5 -3 9 0 9 5 0 6 6 11 13 11 7 0 23 9 35 20 12 12 22 18 22 14 0 -4 8 0 18
9 10 10 22 14 25 10 4 -3 7 2 7 13 0 14 13 5 50 -36 27 -30 49 -59 50 -63z
m1160 82 c0 -4 7 -6 15 -3 8 4 15 1 15 -5 0 -6 3 -10 8 -9 4 0 23 -6 42 -14
58 -25 75 -31 81 -30 3 0 6 -5 6 -12 0 -12 -36 -14 -54 -3 -5 3 -15 2 -23 -3
-8 -5 -21 -5 -31 1 -11 6 -19 5 -21 -2 -2 -7 -12 -7 -30 0 -18 7 -29 7 -34 0
-4 -7 -10 -7 -18 0 -7 6 -17 6 -26 1 -8 -5 -21 -5 -32 1 -12 6 -18 6 -18 -1 0
-5 -4 -10 -10 -10 -5 0 -10 5 -10 11 0 12 25 39 36 39 3 0 14 8 23 18 31 36
81 49 81 21z"/>
<path d="M605 840 c-16 -5 -47 -23 -67 -40 -62 -51 -72 -103 -71 -370 0 -240
3 -271 32 -329 36 -70 93 -100 185 -98 61 2 67 4 106 42 39 38 40 38 41 15 1
-14 1 -31 0 -38 -2 -9 12 -12 51 -10 l52 3 1 200 c0 110 -1 205 -2 210 -4 11
-208 13 -219 2 -4 -4 -7 -25 -8 -47 l-1 -40 40 -1 c22 -1 43 -1 46 -1 11 2 3
-144 -10 -175 -14 -33 -27 -42 -77 -48 -35 -5 -71 24 -80 66 -5 21 -8 293 -5
457 1 72 32 105 93 100 34 -3 44 -9 57 -33 9 -17 16 -54 16 -82 0 -40 3 -53
15 -54 18 -1 112 -1 124 0 8 1 3 100 -8 150 -8 34 -52 89 -89 108 -37 19 -176
27 -222 13z"/>
<path d="M2594 841 c-2 -2 -4 -64 -4 -137 l0 -133 -35 20 c-62 37 -131 27
-167 -24 -40 -56 -45 -88 -44 -274 2 -190 7 -217 55 -260 45 -40 107 -40 164
-1 27 19 27 19 27 -1 0 -19 6 -21 70 -21 l70 0 0 415 c0 362 -2 415 -15 416
-55 3 -117 3 -121 0z m-14 -336 c15 -9 13 -378 -2 -393 -7 -7 -24 -12 -39 -12
-49 0 -54 18 -55 204 -1 143 1 174 15 192 15 21 55 25 81 9z"/>
<path d="M3219 845 c0 0 -2 -9 -4 -20 -1 -11 -12 -65 -24 -120 -11 -55 -23
-115 -26 -134 -3 -19 -10 -55 -16 -80 -6 -25 -13 -57 -15 -71 -6 -31 -34 -168
-40 -195 -3 -11 -7 -36 -10 -55 -3 -19 -11 -61 -18 -92 -7 -32 -11 -60 -8 -63
10 -10 131 -5 137 6 4 5 8 20 10 32 11 87 18 124 25 137 7 14 48 17 137 11 6
-1 12 -9 11 -18 0 -10 3 -29 6 -43 3 -14 9 -45 12 -70 3 -25 8 -48 10 -51 4
-8 123 -11 134 -4 4 2 -6 65 -21 140 -16 74 -31 147 -34 162 -2 15 -21 108
-41 208 -20 99 -38 189 -40 200 -2 11 -7 36 -11 55 -4 19 -7 38 -8 42 -1 15
-17 19 -89 21 -42 1 -76 2 -77 2z m88 -229 c-3 -8 -3 -17 0 -20 3 -3 7 -18 8
-33 3 -33 11 -84 29 -186 l13 -75 -50 -4 c-34 -2 -51 1 -54 10 -5 10 6 95 22
187 11 62 19 121 17 128 -1 4 3 7 9 7 6 0 9 -6 6 -14z"/>
<path d="M6301 838 c-64 -23 -112 -86 -128 -166 -9 -47 -9 -414 0 -477 5 -33
16 -73 24 -89 13 -26 72 -84 80 -79 1 1 14 -4 29 -12 32 -16 146 -17 192 -1
49 17 98 70 112 120 6 24 13 75 13 112 l2 69 -72 2 c-63 2 -73 0 -73 -15 -4
-164 -9 -179 -70 -187 -84 -10 -94 24 -93 328 1 198 4 242 17 262 31 48 115
46 136 -4 6 -16 11 -35 10 -42 -2 -8 -2 -37 -1 -64 l1 -50 74 -1 73 -1 -3 76
c-5 168 -75 235 -237 230 -35 -1 -73 -6 -86 -11z"/>
<path d="M7282 804 c-26 -13 -52 -46 -57 -72 -2 -9 -4 -17 -5 -17 -1 0 -3 -22
-5 -50 -1 -27 -3 -53 -4 -57 0 -4 -13 -6 -28 -5 -27 2 -28 0 -28 -48 0 -49 1
-50 28 -47 17 2 27 -1 28 -10 1 -7 2 -119 3 -248 l1 -235 64 -3 c35 -2 67 1
70 7 3 5 6 115 5 245 0 214 2 236 17 241 9 3 21 5 25 4 33 -6 40 2 38 44 -1
23 -2 44 -3 48 0 3 -18 5 -38 5 -33 -1 -38 2 -39 23 -3 53 11 76 47 81 32 5
34 7 34 45 1 22 -1 45 -2 51 -5 14 -122 13 -151 -2z"/>
<path d="M2083 596 c-22 -12 -50 -27 -61 -34 -18 -11 -20 -10 -17 6 2 10 0 23
-3 28 -7 9 -131 13 -133 4 -1 -3 -2 -136 -3 -297 l-1 -291 70 1 70 2 0 230
c-1 245 0 248 49 261 54 13 56 4 56 -257 l0 -239 70 0 71 0 -2 262 c0 164 -5
270 -12 283 -30 57 -91 73 -154 41z"/>
<path d="M4152 604 c-54 -16 -80 -35 -104 -80 -19 -35 -22 -55 -21 -199 0
-175 3 -201 30 -248 27 -46 74 -70 141 -71 100 -1 143 17 173 77 21 41 32 116
20 136 -5 8 -28 11 -66 9 l-58 -3 -3 -50 c-4 -55 -25 -79 -58 -69 -36 11 -40
22 -43 109 -3 98 -21 87 138 86 l97 0 -3 87 c-2 48 -10 105 -18 127 -27 78
-128 118 -225 89z m97 -108 c7 -8 14 -40 16 -71 l3 -56 -51 3 -52 3 2 59 c1
37 6 62 15 67 20 13 54 11 67 -5z"/>
<path d="M4722 601 c-27 -10 -58 -26 -68 -36 -19 -18 -19 -18 -24 11 -5 29 -6
29 -70 29 l-65 0 -2 -296 -2 -296 69 -2 70 -2 1 183 c0 101 0 206 0 233 -1 28
2 55 6 62 13 18 79 27 89 11 5 -7 9 -116 10 -243 1 -126 2 -233 3 -237 2 -14
128 -9 133 5 4 10 3 436 -1 504 -1 30 -46 80 -76 85 -13 3 -47 -2 -73 -11z"/>
<path d="M5593 609 c-60 -11 -93 -36 -118 -92 -20 -43 -23 -64 -23 -200 -1
-156 6 -196 41 -251 27 -40 90 -65 157 -61 30 1 55 4 55 5 0 1 8 3 19 5 28 5
74 54 85 89 14 44 20 102 12 115 -11 18 -126 10 -127 -9 -1 -8 -2 -28 -3 -45
-2 -37 -10 -50 -38 -59 -15 -5 -28 -1 -43 14 -18 18 -20 31 -18 102 l3 81 116
0 115 -1 -1 71 c-3 118 -26 185 -76 215 -36 22 -101 31 -156 21z m85 -112 c12
-14 22 -95 15 -114 -3 -8 -24 -13 -55 -13 l-50 0 5 59 c2 32 8 64 11 70 10 15
61 14 74 -2z"/>
<path d="M6857 605 c-34 -7 -67 -21 -82 -35 -29 -28 -58 -98 -53 -131 3 -22 8
-24 66 -27 54 -3 62 -1 63 15 2 59 16 83 49 83 31 0 43 -18 46 -74 3 -47 1
-58 -14 -63 -151 -51 -222 -125 -222 -231 0 -131 152 -187 229 -85 20 27 22
26 25 -19 1 -21 7 -23 62 -26 l61 -3 -2 238 c-2 193 -6 246 -19 279 -29 70
-107 99 -209 79z m91 -385 c-1 -72 -4 -83 -25 -99 -22 -18 -57 -18 -68 -1 -12
20 -15 82 -5 102 14 27 70 77 87 78 9 0 12 -23 11 -80z"/>
<path d="M7665 614 c-5 -1 -27 -5 -47 -9 -47 -7 -94 -46 -114 -94 -22 -50 -26
-307 -6 -375 29 -101 76 -134 188 -131 61 2 77 7 108 30 42 32 54 60 63 146
l5 46 -66 2 -66 2 0 -45 c0 -56 -28 -91 -63 -80 -12 3 -26 10 -30 14 -13 12
-16 169 -4 177 6 4 60 6 120 5 l108 -1 -2 90 c-2 50 -7 92 -11 95 -5 3 -6 9
-3 13 8 14 -38 74 -70 92 -28 16 -88 29 -110 23z m53 -129 c7 -14 12 -46 12
-70 l0 -45 -49 0 c-56 0 -61 7 -55 70 5 53 18 70 54 70 19 0 30 -7 38 -25z"/>
<path d="M1047 595 c-2 -5 -3 -138 -3 -295 l1 -285 49 -3 c97 -6 91 -20 89
205 0 109 3 206 8 215 15 28 60 46 104 41 l40 -4 -2 63 c-1 35 -2 66 -2 71 -3
27 -116 -21 -127 -55 -8 -26 -26 -22 -24 5 5 52 4 52 -65 52 -36 0 -66 -4 -68
-10z"/>
<path d="M1495 596 c-54 -24 -82 -68 -92 -143 l-5 -43 66 0 c62 0 66 1 66 23
0 46 12 66 42 72 40 9 50 -3 54 -68 l3 -55 -74 -32 c-41 -18 -75 -37 -75 -41
0 -5 -6 -9 -12 -9 -7 0 -26 -19 -42 -42 -24 -33 -30 -54 -32 -101 -4 -90 34
-142 112 -151 44 -6 69 5 107 47 29 32 27 33 31 -23 1 -11 16 -16 62 -18 l61
-3 -2 240 c-2 211 -5 244 -21 278 -29 59 -74 83 -153 83 -36 -1 -79 -7 -96
-14z m132 -368 c1 -93 -11 -118 -58 -118 -34 0 -43 13 -45 67 -2 33 4 48 24
71 21 21 70 62 77 62 1 0 1 -37 2 -82z"/>
<path d="M3584 599 c-2 -4 -2 -13 0 -21 3 -7 8 -28 11 -45 3 -18 8 -48 12 -65
3 -18 7 -43 7 -55 1 -13 3 -23 6 -23 3 0 6 -9 7 -20 1 -11 11 -66 23 -122 12
-57 24 -114 25 -128 2 -14 8 -40 14 -58 5 -18 9 -36 8 -40 -1 -4 34 -7 78 -7
46 0 80 4 81 10 0 8 11 66 19 105 0 3 4 21 8 40 4 19 9 46 12 60 35 167 46
220 50 250 3 19 10 50 15 68 14 51 6 57 -60 57 -32 0 -61 -3 -63 -5 -3 -3 -7
-27 -11 -55 -12 -99 -17 -130 -22 -155 -2 -14 -7 -45 -9 -70 -8 -90 -24 -153
-26 -99 0 13 -2 33 -5 44 -2 11 -6 38 -8 60 -3 22 -8 58 -11 80 -4 22 -12 76
-19 120 l-11 79 -63 1 c-35 0 -65 -3 -68 -6z"/>
<path d="M4980 600 c-12 -7 -9 -499 2 -532 24 -69 107 -84 187 -34 23 15 42
23 43 19 0 -5 1 -15 2 -23 1 -11 17 -16 65 -18 35 -2 67 1 70 7 3 5 6 139 5
298 l0 288 -70 0 -69 0 -1 -235 c-1 -129 -2 -238 -3 -241 0 -3 -13 -11 -27
-18 -31 -14 -61 -7 -68 17 -3 9 -5 109 -5 222 0 113 0 216 0 230 -1 24 -4 25
-62 25 -33 0 -65 -2 -69 -5z"/>
</g>
</svg>
